<?xml version="1.0" encoding="UTF-8" standalone="no"?>
<!-- Created with Inkscape (http://www.inkscape.org/) -->

<svg
   width="75.806244mm"
   height="75.806244mm"
   viewBox="0 0 75.806244 75.806244"
   version="1.1"
   id="svg5"
   inkscape:version="1.1 (c4e8f9e, 2021-05-24)"
   sodipodi:docname="cross.svg"
   xmlns:inkscape="http://www.inkscape.org/namespaces/inkscape"
   xmlns:sodipodi="http://sodipodi.sourceforge.net/DTD/sodipodi-0.dtd"
   xmlns="http://www.w3.org/2000/svg"
   xmlns:svg="http://www.w3.org/2000/svg">
  <sodipodi:namedview
     id="namedview7"
     pagecolor="#ffffff"
     bordercolor="#666666"
     borderopacity="1.0"
     inkscape:pageshadow="2"
     inkscape:pageopacity="0.0"
     inkscape:pagecheckerboard="0"
     inkscape:document-units="mm"
     showgrid="false"
     inkscape:snap-object-midpoints="true"
     inkscape:zoom="0.62126591"
     inkscape:cx="82.895261"
     inkscape:cy="99.796237"
     inkscape:window-width="1312"
     inkscape:window-height="790"
     inkscape:window-x="0"
     inkscape:window-y="25"
     inkscape:window-maximized="0"
     inkscape:current-layer="layer1" />
  <defs
     id="defs2" />
  <g
     inkscape:label="Layer 1"
     inkscape:groupmode="layer"
     id="layer1"
     transform="translate(-60.66114,-81.053749)">
    <path
       id="path1616-1"
       style="fill:#e16643;fill-opacity:1;stroke:none;stroke-width:93.6843"
       d="M 143.25586 0 A 143.25589 143.25589 0 0 0 0 143.25586 A 143.25589 143.25589 0 0 0 143.25586 286.51172 A 143.25589 143.25589 0 0 0 286.51172 143.25586 A 143.25589 143.25589 0 0 0 143.25586 0 z M 101.71289 58.462891 L 143.25586 100.00586 L 184.79883 58.462891 L 228.04883 101.71289 L 186.50586 143.25586 L 228.04883 184.79883 L 184.79883 228.04883 L 143.25586 186.50586 L 101.71289 228.04883 L 58.462891 184.79883 L 100.00586 143.25586 L 58.462891 101.71289 L 101.71289 58.462891 z "
       transform="matrix(0.26458333,0,0,0.26458333,60.66114,81.053749)" />
  </g>
</svg>
